<svg width="14" height="14" viewBox="0 0 14 14" fill="none" xmlns="http://www.w3.org/2000/svg">
<path d="M6.75918 2.03822C8.44231 2.03822 8.67183 2.03822 9.36038 2.03822C9.97243 2.03822 10.2785 2.19123 10.508 2.26773C10.814 2.42075 11.0435 2.49725 11.273 2.72677C11.5026 2.95629 11.6556 3.18581 11.7321 3.49183C11.8086 3.72135 11.8851 4.02737 11.9616 4.63942C11.9616 5.32797 11.9616 5.48099 11.9616 7.24062C11.9616 9.00026 11.9616 9.15328 11.9616 9.84183C11.9616 10.4539 11.8086 10.7599 11.7321 10.9894C11.5791 11.2954 11.5026 11.525 11.273 11.7545C11.0435 11.984 10.814 12.137 10.508 12.2135C10.2785 12.29 9.97243 12.3665 9.36038 12.443C8.67183 12.443 8.51882 12.443 6.75918 12.443C4.99954 12.443 4.84653 12.443 4.15797 12.443C3.54593 12.443 3.2399 12.29 3.01038 12.2135C2.70436 12.0605 2.47484 11.984 2.24532 11.7545C2.01581 11.525 1.86279 11.2954 1.78629 10.9894C1.70978 10.7599 1.63328 10.4539 1.55677 9.84183C1.55677 9.15328 1.55677 9.00026 1.55677 7.24062C1.55677 5.48099 1.55677 5.32797 1.55677 4.63942C1.55677 4.02737 1.70978 3.72135 1.78629 3.49183C1.9393 3.18581 2.01581 2.95629 2.24532 2.72677C2.47484 2.49725 2.70436 2.34424 3.01038 2.26773C3.2399 2.19123 3.54593 2.11472 4.15797 2.03822C4.84653 2.03822 5.07605 2.03822 6.75918 2.03822ZM6.75918 0.890625C4.99954 0.890625 4.84653 0.890625 4.15797 0.890625C3.46942 0.890625 3.01038 1.04364 2.62785 1.19665C2.24532 1.34966 1.86279 1.57918 1.48026 1.96171C1.09773 2.34424 0.944722 2.65026 0.715204 3.1093C0.562192 3.49183 0.485686 3.95087 0.40918 4.63942C0.40918 5.32797 0.40918 5.55749 0.40918 7.24062C0.40918 9.00026 0.40918 9.15328 0.40918 9.84183C0.40918 10.5304 0.562192 10.9894 0.715204 11.3719C0.868216 11.7545 1.09773 12.137 1.48026 12.5195C1.86279 12.9021 2.16882 13.0551 2.62785 13.2846C3.01038 13.4376 3.46942 13.5141 4.15797 13.5906C4.84653 13.5906 5.07605 13.5906 6.75918 13.5906C8.44231 13.5906 8.67183 13.5906 9.36038 13.5906C10.0489 13.5906 10.508 13.4376 10.8905 13.2846C11.273 13.1316 11.6556 12.9021 12.0381 12.5195C12.4206 12.137 12.5736 11.831 12.8032 11.3719C12.9562 10.9894 13.0327 10.5304 13.1092 9.84183C13.1092 9.15328 13.1092 8.92376 13.1092 7.24062C13.1092 5.55749 13.1092 5.32797 13.1092 4.63942C13.1092 3.95087 12.9562 3.49183 12.8032 3.1093C12.6501 2.72677 12.4206 2.34424 12.0381 1.96171C11.6556 1.57918 11.3495 1.42617 10.8905 1.19665C10.508 1.04364 10.0489 0.967131 9.36038 0.890625C8.67183 0.890625 8.51882 0.890625 6.75918 0.890625Z" fill="#00BAF7"/>
<path d="M6.75918 3.95087C4.92303 3.95087 3.46942 5.40448 3.46942 7.24062C3.46942 9.07677 4.92303 10.5304 6.75918 10.5304C8.59532 10.5304 10.0489 9.07677 10.0489 7.24062C10.0489 5.40448 8.59532 3.95087 6.75918 3.95087ZM6.75918 9.38279C5.61159 9.38279 4.61701 8.46472 4.61701 7.24062C4.61701 6.09303 5.53508 5.09846 6.75918 5.09846C7.90677 5.09846 8.90135 6.01653 8.90135 7.24062C8.90135 8.38822 7.90677 9.38279 6.75918 9.38279Z" fill="#00BAF7"/>
<path d="M10.1254 4.63942C10.548 4.63942 10.8905 4.29689 10.8905 3.87436C10.8905 3.45183 10.548 3.1093 10.1254 3.1093C9.70291 3.1093 9.36038 3.45183 9.36038 3.87436C9.36038 4.29689 9.70291 4.63942 10.1254 4.63942Z" fill="#00BAF7"/>
</svg>
