<svg width="26" height="26" viewBox="0 0 26 26" fill="none" xmlns="http://www.w3.org/2000/svg">
<path d="M13.0008 2.80078C16.3008 2.80078 16.7508 2.80078 18.1008 2.80078C19.3008 2.80078 19.9008 3.10078 20.3508 3.25078C20.9508 3.55078 21.4008 3.70078 21.8508 4.15078C22.3008 4.60078 22.6008 5.05078 22.7508 5.65078C22.9008 6.10078 23.0508 6.70078 23.2008 7.90078C23.2008 9.25078 23.2008 9.55078 23.2008 13.0008C23.2008 16.4508 23.2008 16.7508 23.2008 18.1008C23.2008 19.3008 22.9008 19.9008 22.7508 20.3508C22.4508 20.9508 22.3008 21.4008 21.8508 21.8508C21.4008 22.3008 20.9508 22.6008 20.3508 22.7508C19.9008 22.9008 19.3008 23.0508 18.1008 23.2008C16.7508 23.2008 16.4508 23.2008 13.0008 23.2008C9.55078 23.2008 9.25078 23.2008 7.90078 23.2008C6.70078 23.2008 6.10078 22.9008 5.65078 22.7508C5.05078 22.4508 4.60078 22.3008 4.15078 21.8508C3.70078 21.4008 3.40078 20.9508 3.25078 20.3508C3.10078 19.9008 2.95078 19.3008 2.80078 18.1008C2.80078 16.7508 2.80078 16.4508 2.80078 13.0008C2.80078 9.55078 2.80078 9.25078 2.80078 7.90078C2.80078 6.70078 3.10078 6.10078 3.25078 5.65078C3.55078 5.05078 3.70078 4.60078 4.15078 4.15078C4.60078 3.70078 5.05078 3.40078 5.65078 3.25078C6.10078 3.10078 6.70078 2.95078 7.90078 2.80078C9.25078 2.80078 9.70078 2.80078 13.0008 2.80078ZM13.0008 0.550781C9.55078 0.550781 9.25078 0.550781 7.90078 0.550781C6.55078 0.550781 5.65078 0.850782 4.90078 1.15078C4.15078 1.45078 3.40078 1.90078 2.65078 2.65078C1.90078 3.40078 1.60078 4.00078 1.15078 4.90078C0.850782 5.65078 0.700781 6.55078 0.550781 7.90078C0.550781 9.25078 0.550781 9.70078 0.550781 13.0008C0.550781 16.4508 0.550781 16.7508 0.550781 18.1008C0.550781 19.4508 0.850782 20.3508 1.15078 21.1008C1.45078 21.8508 1.90078 22.6008 2.65078 23.3508C3.40078 24.1008 4.00078 24.4008 4.90078 24.8508C5.65078 25.1508 6.55078 25.3008 7.90078 25.4508C9.25078 25.4508 9.70078 25.4508 13.0008 25.4508C16.3008 25.4508 16.7508 25.4508 18.1008 25.4508C19.4508 25.4508 20.3508 25.1508 21.1008 24.8508C21.8508 24.5508 22.6008 24.1008 23.3508 23.3508C24.1008 22.6008 24.4008 22.0008 24.8508 21.1008C25.1508 20.3508 25.3008 19.4508 25.4508 18.1008C25.4508 16.7508 25.4508 16.3008 25.4508 13.0008C25.4508 9.70078 25.4508 9.25078 25.4508 7.90078C25.4508 6.55078 25.1508 5.65078 24.8508 4.90078C24.5508 4.15078 24.1008 3.40078 23.3508 2.65078C22.6008 1.90078 22.0008 1.60078 21.1008 1.15078C20.3508 0.850782 19.4508 0.700781 18.1008 0.550781C16.7508 0.550781 16.4508 0.550781 13.0008 0.550781Z" fill="white"/>
<path d="M13.0008 6.55078C9.40078 6.55078 6.55078 9.40078 6.55078 13.0008C6.55078 16.6008 9.40078 19.4508 13.0008 19.4508C16.6008 19.4508 19.4508 16.6008 19.4508 13.0008C19.4508 9.40078 16.6008 6.55078 13.0008 6.55078ZM13.0008 17.2008C10.7508 17.2008 8.80078 15.4008 8.80078 13.0008C8.80078 10.7508 10.6008 8.80078 13.0008 8.80078C15.2508 8.80078 17.2008 10.6008 17.2008 13.0008C17.2008 15.2508 15.2508 17.2008 13.0008 17.2008Z" fill="white"/>
<path d="M19.6008 7.90078C20.4292 7.90078 21.1008 7.22921 21.1008 6.40078C21.1008 5.57235 20.4292 4.90078 19.6008 4.90078C18.7724 4.90078 18.1008 5.57235 18.1008 6.40078C18.1008 7.22921 18.7724 7.90078 19.6008 7.90078Z" fill="white"/>
</svg>
