<svg width="14" height="13" viewBox="0 0 14 13" fill="none" xmlns="http://www.w3.org/2000/svg">
<path d="M3.66926 12.3611H1.06805V4.17494H3.66926V12.3611ZM2.36865 3.02735C1.52709 3.02735 0.915039 2.4153 0.915039 1.57373C0.915039 0.732165 1.60359 0.120117 2.36865 0.120117C3.21022 0.120117 3.82227 0.732165 3.82227 1.57373C3.82227 2.4153 3.21022 3.02735 2.36865 3.02735ZM13.156 12.3611H10.5548V7.92373C10.5548 6.62313 10.0193 6.2406 9.25419 6.2406C8.48913 6.2406 7.72407 6.85265 7.72407 8.00024V12.3611H5.12287V4.17494H7.57106V5.32253C7.80058 4.78699 8.71865 3.94542 10.0193 3.94542C11.4729 3.94542 13.003 4.78698 13.003 7.31168V12.3611H13.156Z" fill="#00BAF7"/>
</svg>
