<svg width="442" height="310" viewBox="0 0 442 310" fill="none" xmlns="http://www.w3.org/2000/svg">
<g clip-path="url(#clip0_523_474)">
<path d="M390.33 302.208L382.936 302.208L379.418 273.625L390.332 273.626L390.33 302.208Z" fill="#FFB8B8"/>
<path d="M392.216 309.388L368.373 309.387V309.085C368.373 306.619 369.351 304.253 371.091 302.509C372.832 300.765 375.192 299.785 377.654 299.785H377.654L392.217 299.786L392.216 309.388Z" fill="#2F2E41"/>
<path d="M422.966 283.987L418.166 289.625L394.186 273.753L401.27 265.434L422.966 283.987Z" fill="#FFB8B8"/>
<path d="M429.643 287.214L414.165 305.39L413.936 305.194C412.064 303.592 410.903 301.312 410.709 298.853C410.514 296.394 411.303 293.959 412.9 292.082L412.901 292.082L422.354 280.98L429.643 287.214Z" fill="#2F2E41"/>
<path d="M337.825 161.639L335.523 182.913L428.573 181.583L387.994 115.322L354.861 114.129L337.825 161.639Z" fill="#2F2E41"/>
<path opacity="0.28" d="M337.825 161.639L335.523 182.913L428.573 181.583L387.994 115.322L354.861 114.129L337.825 161.639Z" fill="black"/>
<path d="M356.123 165.291L352.838 184.756V202.155L379.324 210.819C379.324 210.819 376.223 278.4 380.357 282.705L380.255 293.096L391.809 293.622L391.904 286.309L396.802 231.648L399.687 191.517L395.01 161.09L356.123 165.291Z" fill="#2F2E41"/>
<path d="M376.642 182.047L352.837 202.155C352.837 202.155 351.444 238.435 354.982 242.69C358.02 246.344 397.542 277.865 397.542 277.865C397.542 277.865 404.567 284.321 408.503 284.424C412.439 284.527 417.018 276.253 417.018 276.253L407.901 269.312C407.901 269.312 384.284 247.22 377.271 238.435C374.441 234.89 374.441 234.535 374.441 234.535L375.407 219.791L385.137 192.427L376.642 182.047Z" fill="#2F2E41"/>
<path d="M351.37 85.7279L341.106 84.7773L331.797 86.3321L312.084 86.3384L310.404 100.656L328.394 104.691L332.778 102.537L351.052 109.515L351.37 85.7279Z" fill="#2F2E41"/>
<path d="M363.627 85.6844C363.627 85.6844 385.408 83.6391 390.362 87.5392C395.315 91.4393 405.929 168.732 405.929 168.732L363.627 171.125L356.043 165.896L358.196 127.308L363.627 85.6844Z" fill="#F79100"/>
<path d="M370.276 85.2031L346.249 85.7316L323.848 187.169L341.538 191.069L370.276 85.2031Z" fill="#2F2E41"/>
<path d="M387.357 84.3438L406.283 90.2801L405.208 131.957L428.573 181.786L401.106 184.685L379.395 130.88L387.357 84.3438Z" fill="#2F2E41"/>
<path d="M418.566 186.849C419.229 186.263 419.756 185.539 420.111 184.728C420.465 183.916 420.637 183.036 420.615 182.151C420.593 181.265 420.378 180.395 419.984 179.602C419.59 178.809 419.028 178.112 418.336 177.56L422.144 164.249L414.636 159.957L409.523 178.831C408.675 180.056 408.305 181.551 408.483 183.032C408.662 184.513 409.376 185.877 410.49 186.865C411.605 187.853 413.043 188.397 414.531 188.395C416.019 188.392 417.455 187.842 418.566 186.849Z" fill="#FFB8B8"/>
<path d="M395.314 91.4383L406.513 90.4648C406.513 90.4648 416.567 101.003 418.855 109.162C421.142 117.321 423.618 142.849 423.618 142.849L422.585 180.193L409.495 171.285L408.617 139.163L395.314 91.4383Z" fill="#2F2E41"/>
<path d="M392.614 72.6695C396.82 64.9601 393.992 55.2939 386.299 51.0796C378.606 46.8652 368.961 49.6985 364.755 57.408C360.55 65.1174 363.377 74.7836 371.07 78.998C378.763 83.2123 388.409 80.379 392.614 72.6695Z" fill="#FFB8B8"/>
<path d="M376.914 58.3968C374.832 57.9145 372.669 58.449 370.56 58.7954C368.45 59.1419 366.125 59.2561 364.341 58.0765C363.023 57.2054 362.213 55.7643 361.452 54.3781C361.135 53.883 360.923 53.3273 360.831 52.7462C360.741 51.7209 361.392 50.7856 362.083 50.0243C365.293 46.4883 369.984 44.5529 374.714 43.9381C378.616 43.3555 382.602 43.8433 386.248 45.3496C389.839 46.928 392.926 49.8184 394.338 53.4845C394.988 55.3608 395.394 57.3133 395.546 59.2937C395.76 60.7508 395.787 62.2292 395.628 63.6933C395.438 64.7786 395.153 65.8451 394.777 66.8806L392.438 73.9575C392.27 74.6262 391.956 75.2493 391.519 75.7817C391.294 76.0425 390.991 76.2232 390.655 76.297C390.319 76.3707 389.968 76.3334 389.656 76.1907C389.843 75.4221 389.871 74.6232 389.739 73.8431C389.666 73.4543 389.479 73.0964 389.201 72.8154C388.923 72.5345 388.567 72.3434 388.18 72.2668C387.318 72.1751 386.581 72.8448 385.764 73.1332C385.389 73.2444 384.997 73.2806 384.609 73.2398C384.22 73.199 383.844 73.0819 383.501 72.8953C383.158 72.7088 382.855 72.4563 382.609 72.1523C382.364 71.8484 382.18 71.4989 382.069 71.1239C382.047 71.0483 382.027 70.9719 382.011 70.8947C381.882 70.0856 382.099 69.2195 381.793 68.4597C381.434 67.5695 380.483 67.1031 379.769 66.4634C379.117 65.8607 378.651 65.084 378.424 64.2246C378.198 63.3653 378.221 62.4591 378.491 61.6125C378.682 61.0235 379.222 60.7558 379.114 60.0792C378.972 59.1915 377.667 58.571 376.914 58.3968Z" fill="#2F2E41"/>
<path d="M200.421 125.645H0V0H200.421V125.645Z" fill="white"/>
<path d="M200.421 125.645H0V0H200.421V125.645ZM0.915167 124.728H199.506V0.917117H0.915167V124.728Z" fill="#3F3D56"/>
<path d="M175.94 299.668H61.5449V174.023H175.94V299.668Z" fill="white"/>
<path d="M175.94 299.668H61.5449V174.023H175.94V299.668ZM62.4601 298.751H175.025V174.941H62.4601V298.751Z" fill="#3F3D56"/>
<path d="M160.382 287.801H136.588V288.767H160.382V287.801Z" fill="#3F3D56"/>
<path d="M160.382 290.699H136.588V291.666H160.382V290.699Z" fill="#3F3D56"/>
<path d="M160.382 293.602H136.588V294.568H160.382V293.602Z" fill="#3F3D56"/>
<path d="M118.742 196.492V206.58C124.715 206.58 130.554 208.355 135.521 211.681C140.487 215.007 144.358 219.733 146.644 225.263C148.93 230.794 149.528 236.879 148.362 242.75C147.197 248.62 144.321 254.013 140.097 258.246L147.215 265.379C152.847 259.736 156.682 252.545 158.236 244.718C159.789 236.89 158.992 228.776 155.944 221.403C152.897 214.029 147.735 207.727 141.113 203.293C134.492 198.859 126.706 196.492 118.742 196.492Z" fill="#E6E6E6"/>
<path d="M147.215 265.38L140.097 258.246C134.933 263.421 128.073 266.546 120.787 267.041C113.501 267.536 106.283 265.368 100.47 260.939L94.377 268.973C102.129 274.877 111.754 277.767 121.468 277.106C131.183 276.445 140.33 272.279 147.215 265.38Z" fill="#575A89"/>
<path d="M88.5414 236.845C88.5414 232.871 89.3226 228.935 90.8403 225.263C92.358 221.592 94.5826 218.255 97.3869 215.445C100.191 212.634 103.521 210.405 107.185 208.884C110.849 207.363 114.776 206.58 118.742 206.58V196.492C110.312 196.492 102.095 199.143 95.2492 204.071C88.403 209 83.2728 215.957 80.5817 223.962C77.8906 231.968 77.7744 240.618 80.2494 248.693C82.7244 256.768 87.6658 263.861 94.3771 268.972L100.47 260.938C96.7603 258.118 93.7526 254.475 91.683 250.295C89.6134 246.115 88.5381 241.512 88.5414 236.845Z" fill="#00BAF7"/>
<path d="M345.245 221.711H230.85V96.0664H345.245V221.711Z" fill="white"/>
<path d="M345.245 221.711H230.85V96.0664H345.245V221.711ZM231.765 220.794H344.33V96.9835H231.765V220.794Z" fill="#3F3D56"/>
<path d="M267.915 172.875H247.324V205.891H267.915V172.875Z" fill="#575A89"/>
<path d="M297.658 150.406H277.066V205.892H297.658V150.406Z" fill="#E6E6E6"/>
<path d="M327.4 124.27H306.809V205.893H327.4V124.27Z" fill="#00BAF7"/>
<path d="M334.263 206.812H241.832V110.973H242.747V205.894H334.263V206.812Z" fill="#3F3D56"/>
<path d="M311.978 99.4128C315.459 99.4128 318.28 96.5851 318.28 93.097C318.28 89.6089 315.459 86.7812 311.978 86.7812C308.497 86.7812 305.676 89.6089 305.676 93.097C305.676 96.5851 308.497 99.4128 311.978 99.4128Z" fill="#FFB8B8"/>
<path d="M441.475 310.002H343.263C343.124 310.002 342.991 309.946 342.892 309.848C342.794 309.749 342.738 309.615 342.738 309.476C342.738 309.336 342.794 309.202 342.892 309.103C342.991 309.005 343.124 308.949 343.263 308.949H441.475C441.614 308.949 441.748 309.005 441.847 309.103C441.945 309.202 442 309.336 442 309.476C442 309.615 441.945 309.749 441.847 309.848C441.748 309.946 441.614 310.002 441.475 310.002Z" fill="#CCCCCC"/>
<path d="M172.588 99.366H27.8339C27.7137 99.366 27.5985 99.3181 27.5135 99.233C27.4286 99.1479 27.3809 99.0324 27.3809 98.912V29.3837C27.3809 29.2633 27.4286 29.1478 27.5135 29.0627C27.5985 28.9775 27.7137 28.9297 27.8339 28.9297C27.954 28.9297 28.0692 28.9775 28.1542 29.0627C28.2392 29.1478 28.2869 29.2633 28.2869 29.3837V98.458H172.588C172.647 98.4578 172.706 98.4694 172.761 98.4921C172.816 98.5148 172.867 98.5482 172.909 98.5904C172.951 98.6326 172.985 98.6827 173.007 98.7379C173.03 98.7931 173.042 98.8522 173.042 98.912C173.042 98.9717 173.03 99.0309 173.007 99.0861C172.985 99.1413 172.951 99.1914 172.909 99.2335C172.867 99.2757 172.816 99.3091 172.761 99.3319C172.706 99.3546 172.647 99.3662 172.588 99.366Z" fill="#3F3D56"/>
<path d="M58.7607 94.3752H45.5948C45.2383 94.3748 44.8965 94.2327 44.6443 93.9801C44.3922 93.7275 44.2504 93.385 44.25 93.0277V74.8397C44.2504 74.4824 44.3922 74.1399 44.6443 73.8873C44.8965 73.6347 45.2383 73.4926 45.5948 73.4922H58.7607C59.1172 73.4926 59.459 73.6347 59.7111 73.8873C59.9632 74.1399 60.105 74.4824 60.1054 74.8397V93.0277C60.105 93.3849 59.9632 93.7275 59.7111 93.9801C59.459 94.2327 59.1172 94.3748 58.7607 94.3752Z" fill="#00BAF7"/>
<path d="M82.7704 94.3725H69.6045C69.248 94.3721 68.9062 94.23 68.6541 93.9774C68.402 93.7247 68.2602 93.3822 68.2598 93.025V57.5858C68.2602 57.2285 68.402 56.886 68.6541 56.6334C68.9062 56.3808 69.248 56.2387 69.6045 56.2383H82.7704C83.1269 56.2387 83.4687 56.3808 83.7208 56.6334C83.9729 56.886 84.1148 57.2285 84.1152 57.5858V93.025C84.1148 93.3822 83.9729 93.7247 83.7208 93.9774C83.4687 94.23 83.1269 94.3721 82.7704 94.3725Z" fill="#00BAF7"/>
<path d="M106.78 94.3752H93.6143C93.2578 94.3748 92.916 94.2327 92.6639 93.9801C92.4118 93.7275 92.27 93.385 92.2695 93.0277V74.8397C92.27 74.4824 92.4118 74.1399 92.6639 73.8873C92.916 73.6347 93.2578 73.4926 93.6143 73.4922H106.78C107.137 73.4926 107.479 73.6347 107.731 73.8873C107.983 74.1399 108.125 74.4824 108.125 74.8397V93.0277C108.125 93.3849 107.983 93.7275 107.731 93.9801C107.479 94.2327 107.137 94.3748 106.78 94.3752Z" fill="#00BAF7"/>
<path d="M130.79 94.3739H117.624C117.276 94.3814 116.939 94.2502 116.686 94.0091C116.434 93.7679 116.288 93.4365 116.279 93.0874V50.7165C116.288 50.3674 116.434 50.0359 116.686 49.7948C116.939 49.5537 117.276 49.4225 117.624 49.43H130.79C131.138 49.4225 131.476 49.5537 131.728 49.7948C131.98 50.0359 132.126 50.3674 132.135 50.7165V93.0874C132.126 93.4365 131.98 93.7679 131.728 94.0091C131.476 94.2502 131.138 94.3814 130.79 94.3739Z" fill="#00BAF7"/>
<path d="M154.8 94.3732H141.634C141.277 94.3728 140.936 94.2307 140.683 93.9781C140.431 93.7254 140.289 93.3829 140.289 93.0257V38.5194C140.289 38.1621 140.431 37.8196 140.683 37.567C140.936 37.3144 141.277 37.1723 141.634 37.1719H154.8C155.156 37.1723 155.498 37.3144 155.75 37.567C156.002 37.8196 156.144 38.1621 156.145 38.5194V93.0257C156.144 93.3829 156.002 93.7254 155.75 93.9781C155.498 94.2307 155.156 94.3728 154.8 94.3732Z" fill="#00BAF7"/>
<path d="M52.179 68.0415C53.6802 68.0415 54.8971 66.822 54.8971 65.3176C54.8971 63.8133 53.6802 62.5938 52.179 62.5938C50.6779 62.5938 49.4609 63.8133 49.4609 65.3176C49.4609 66.822 50.6779 68.0415 52.179 68.0415Z" fill="#3F3D56"/>
<path d="M76.1888 50.3384C77.6899 50.3384 78.9069 49.1189 78.9069 47.6145C78.9069 46.1101 77.6899 44.8906 76.1888 44.8906C74.6876 44.8906 73.4707 46.1101 73.4707 47.6145C73.4707 49.1189 74.6876 50.3384 76.1888 50.3384Z" fill="#3F3D56"/>
<path d="M100.199 68.0415C101.7 68.0415 102.917 66.822 102.917 65.3176C102.917 63.8133 101.7 62.5938 100.199 62.5938C98.6974 62.5938 97.4805 63.8133 97.4805 65.3176C97.4805 66.822 98.6974 68.0415 100.199 68.0415Z" fill="#3F3D56"/>
<path d="M124.208 41.7134C125.709 41.7134 126.926 40.4939 126.926 38.9895C126.926 37.4851 125.709 36.2656 124.208 36.2656C122.707 36.2656 121.49 37.4851 121.49 38.9895C121.49 40.4939 122.707 41.7134 124.208 41.7134Z" fill="#3F3D56"/>
<path d="M148.216 31.7251C149.717 31.7251 150.934 30.5056 150.934 29.0012C150.934 27.4969 149.717 26.2773 148.216 26.2773C146.715 26.2773 145.498 27.4969 145.498 29.0012C145.498 30.5056 146.715 31.7251 148.216 31.7251Z" fill="#3F3D56"/>
<path d="M100.254 65.9279L76.1876 47.8632L52.4493 65.6811L51.9062 64.9542L76.1876 46.7285L100.14 64.7074L123.942 38.6048L124.038 38.5658L148.047 28.8711L148.386 29.7137L124.472 39.3695L100.254 65.9279Z" fill="#3F3D56"/>
</g>
<defs>
<clipPath id="clip0_523_474">
<rect width="442" height="310" fill="white"/>
</clipPath>
</defs>
</svg>
