<svg width="24" height="19" viewBox="0 0 24 19" fill="none" xmlns="http://www.w3.org/2000/svg">
<path d="M24 2.24932C23.1 2.67887 22.2 2.82206 21.15 2.96524C22.2 2.3925 22.95 1.5334 23.25 0.38793C22.35 0.960666 21.3 1.24703 20.1 1.5334C19.2 0.674298 17.85 0.101562 16.5 0.101562C13.35 0.101562 10.95 2.96524 11.7 5.82892C7.65 5.68573 4.05 3.82434 1.5 0.960666C0.15 3.10842 0.9 5.82892 3 7.26076C2.25 7.26076 1.5 6.97439 0.75 6.68802C0.75 8.83578 2.4 10.8404 4.65 11.4131C3.9 11.5563 3.15 11.6995 2.4 11.5563C3 13.4177 4.8 14.8495 7.05 14.8495C5.25 16.1382 2.55 16.8541 0 16.5677C2.25 17.8564 4.8 18.7155 7.5 18.7155C16.65 18.7155 21.75 11.4131 21.45 4.68345C22.5 4.11071 23.4 3.25161 24 2.24932Z" fill="white"/>
</svg>
