<svg width="14" height="11" viewBox="0 0 14 11" fill="none" xmlns="http://www.w3.org/2000/svg">
<path d="M13.0037 1.79759C12.5446 2.01668 12.0856 2.08971 11.55 2.16274C12.0856 1.87062 12.4681 1.43244 12.6211 0.848207C12.1621 1.14033 11.6266 1.28638 11.0145 1.43244C10.5555 0.994267 9.86691 0.702148 9.17836 0.702148C7.57173 0.702148 6.34764 2.16274 6.73017 3.62333C4.6645 3.5503 2.82836 2.60092 1.52776 1.14033C0.839201 2.23577 1.22173 3.62333 2.29282 4.35363C1.91029 4.35363 1.52776 4.20757 1.14523 4.06151C1.14523 5.15695 1.98679 6.17936 3.13438 6.47148C2.75185 6.54451 2.36932 6.61754 1.98679 6.54451C2.29282 7.4939 3.21089 8.22419 4.35848 8.22419C3.44041 8.88146 2.0633 9.2466 0.762695 9.10055C1.91029 9.75781 3.21089 10.196 4.588 10.196C9.25486 10.196 11.8561 6.47148 11.7031 3.03909C12.2386 2.74698 12.6976 2.3088 13.0037 1.79759Z" fill="#00BAF7"/>
</svg>
